<mxfile host="Electron" agent="Mozilla/5.0 (Windows NT 10.0; Win64; x64) AppleWebKit/537.36 (KHTML, like Gecko) draw.io/22.0.3 Chrome/114.0.5735.289 Electron/25.8.4 Safari/537.36" modified="2025-01-04T09:19:12.029Z" version="22.0.3" etag="3hFHxSNnDgR00PRqs4ax" type="device">
  <diagram name="Page-1" id="5f0bae14-7c28-e335-631c-24af17079c00">
    <mxGraphModel dx="1418" dy="902" grid="1" gridSize="10" guides="1" tooltips="1" connect="1" arrows="1" fold="1" page="1" pageScale="1" pageWidth="1100" pageHeight="850" background="none" math="0" shadow="0">
      <root>
        <mxCell id="0" />
        <mxCell id="1" parent="0" />
        <mxCell id="rrHo5r-WzOikPcS9EhRm-3" value="&lt;p style=&quot;margin:0px;margin-top:6px;text-align:center;&quot;&gt;&lt;b&gt;Home.jsp&lt;/b&gt;&lt;/p&gt;" style="align=left;overflow=fill;html=1;dropTarget=0;whiteSpace=wrap;" parent="1" vertex="1">
          <mxGeometry x="436" y="141" width="170" height="40" as="geometry" />
        </mxCell>
        <mxCell id="rrHo5r-WzOikPcS9EhRm-4" value="" style="shape=component;jettyWidth=8;jettyHeight=4;" parent="rrHo5r-WzOikPcS9EhRm-3" vertex="1">
          <mxGeometry x="1" width="20" height="20" relative="1" as="geometry">
            <mxPoint x="-24" y="4" as="offset" />
          </mxGeometry>
        </mxCell>
        <mxCell id="rrHo5r-WzOikPcS9EhRm-7" value="&lt;p style=&quot;margin:0px;margin-top:6px;text-align:center;&quot;&gt;&lt;b&gt;CreationScheduleServlet&lt;/b&gt;&lt;/p&gt;" style="align=left;overflow=fill;html=1;dropTarget=0;whiteSpace=wrap;" parent="1" vertex="1">
          <mxGeometry x="800" y="434.5" width="185" height="33" as="geometry" />
        </mxCell>
        <mxCell id="rrHo5r-WzOikPcS9EhRm-8" value="" style="shape=component;jettyWidth=8;jettyHeight=4;" parent="rrHo5r-WzOikPcS9EhRm-7" vertex="1">
          <mxGeometry x="1" width="20" height="20" relative="1" as="geometry">
            <mxPoint x="-24" y="5" as="offset" />
          </mxGeometry>
        </mxCell>
        <mxCell id="rrHo5r-WzOikPcS9EhRm-12" value="&lt;p style=&quot;margin:0px;margin-top:6px;text-align:center;&quot;&gt;&lt;b style=&quot;background-color: initial;&quot;&gt;Selection.jsp&lt;/b&gt;&lt;/p&gt;" style="align=left;overflow=fill;html=1;dropTarget=0;whiteSpace=wrap;" parent="1" vertex="1">
          <mxGeometry x="431" y="369" width="180" height="30" as="geometry" />
        </mxCell>
        <mxCell id="rrHo5r-WzOikPcS9EhRm-13" value="" style="shape=component;jettyWidth=8;jettyHeight=4;" parent="rrHo5r-WzOikPcS9EhRm-12" vertex="1">
          <mxGeometry x="1" width="20" height="20" relative="1" as="geometry">
            <mxPoint x="-24" y="4" as="offset" />
          </mxGeometry>
        </mxCell>
        <mxCell id="rrHo5r-WzOikPcS9EhRm-16" value="&lt;p style=&quot;margin:0px;margin-top:6px;text-align:center;&quot;&gt;&lt;b&gt;ShowScheduleDay.jsp&lt;/b&gt;&lt;/p&gt;" style="align=left;overflow=fill;html=1;dropTarget=0;whiteSpace=wrap;" parent="1" vertex="1">
          <mxGeometry x="428.5" y="458" width="185" height="34" as="geometry" />
        </mxCell>
        <mxCell id="rrHo5r-WzOikPcS9EhRm-17" value="" style="shape=component;jettyWidth=8;jettyHeight=4;" parent="rrHo5r-WzOikPcS9EhRm-16" vertex="1">
          <mxGeometry x="1" width="20" height="20" relative="1" as="geometry">
            <mxPoint x="-24" y="4" as="offset" />
          </mxGeometry>
        </mxCell>
        <mxCell id="rrHo5r-WzOikPcS9EhRm-21" value="&lt;p style=&quot;margin:0px;margin-top:4px;text-align:center;&quot;&gt;&lt;br&gt;&lt;b&gt;Schedule&lt;/b&gt;&lt;/p&gt;" style="verticalAlign=top;align=left;overflow=fill;fontSize=12;fontFamily=Helvetica;html=1;whiteSpace=wrap;" parent="1" vertex="1">
          <mxGeometry x="1192.5" y="540" width="110" height="50" as="geometry" />
        </mxCell>
        <mxCell id="rrHo5r-WzOikPcS9EhRm-25" value="Database" style="shape=cylinder3;whiteSpace=wrap;html=1;boundedLbl=1;backgroundOutline=1;size=15;" parent="1" vertex="1">
          <mxGeometry x="1545" y="379" width="60" height="80" as="geometry" />
        </mxCell>
        <mxCell id="rrHo5r-WzOikPcS9EhRm-40" value="&lt;p style=&quot;margin:0px;margin-top:6px;text-align:center;&quot;&gt;&lt;b style=&quot;border-color: var(--border-color);&quot;&gt;Signin_Controler&lt;/b&gt;&lt;br&gt;&lt;/p&gt;" style="align=left;overflow=fill;html=1;dropTarget=0;whiteSpace=wrap;" parent="1" vertex="1">
          <mxGeometry x="790" y="280" width="190" height="30" as="geometry" />
        </mxCell>
        <mxCell id="rrHo5r-WzOikPcS9EhRm-41" value="" style="shape=component;jettyWidth=8;jettyHeight=4;" parent="rrHo5r-WzOikPcS9EhRm-40" vertex="1">
          <mxGeometry x="1" width="20" height="20" relative="1" as="geometry">
            <mxPoint x="-24" y="3" as="offset" />
          </mxGeometry>
        </mxCell>
        <mxCell id="rrHo5r-WzOikPcS9EhRm-54" value="" style="endArrow=none;html=1;rounded=0;entryX=0;entryY=0.5;entryDx=0;entryDy=0;exitX=1;exitY=0.75;exitDx=0;exitDy=0;" parent="1" source="rrHo5r-WzOikPcS9EhRm-7" target="rrHo5r-WzOikPcS9EhRm-21" edge="1">
          <mxGeometry width="50" height="50" relative="1" as="geometry">
            <mxPoint x="340" y="683" as="sourcePoint" />
            <mxPoint x="980" y="606" as="targetPoint" />
            <Array as="points" />
          </mxGeometry>
        </mxCell>
        <mxCell id="rrHo5r-WzOikPcS9EhRm-27" value="&lt;p style=&quot;margin: 4px 0px 0px;&quot;&gt;&lt;br&gt;&lt;/p&gt;&lt;p style=&quot;margin: 4px 0px 0px;&quot;&gt;&lt;b&gt;Traveler&lt;/b&gt;&lt;/p&gt;&lt;p style=&quot;margin: 4px 0px 0px;&quot;&gt;&lt;b&gt;&lt;br&gt;&lt;/b&gt;&lt;/p&gt;" style="verticalAlign=top;align=center;overflow=fill;fontSize=12;fontFamily=Helvetica;html=1;whiteSpace=wrap;" parent="1" vertex="1">
          <mxGeometry x="1175.5" y="200" width="110" height="50" as="geometry" />
        </mxCell>
        <mxCell id="rrHo5r-WzOikPcS9EhRm-67" value="&lt;p style=&quot;margin:0px;margin-top:6px;text-align:center;&quot;&gt;&lt;b&gt;Connect.jsp&lt;/b&gt;&lt;/p&gt;" style="align=left;overflow=fill;html=1;dropTarget=0;whiteSpace=wrap;" parent="1" vertex="1">
          <mxGeometry x="429.5" y="303" width="181" height="30" as="geometry" />
        </mxCell>
        <mxCell id="rrHo5r-WzOikPcS9EhRm-68" value="" style="shape=component;jettyWidth=8;jettyHeight=4;" parent="rrHo5r-WzOikPcS9EhRm-67" vertex="1">
          <mxGeometry x="1" width="20" height="20" relative="1" as="geometry">
            <mxPoint x="-24" y="3" as="offset" />
          </mxGeometry>
        </mxCell>
        <mxCell id="rrHo5r-WzOikPcS9EhRm-81" value="" style="ellipse;whiteSpace=wrap;html=1;align=center;aspect=fixed;fillColor=none;strokeColor=none;resizable=0;perimeter=centerPerimeter;rotatable=0;allowArrows=0;points=[];outlineConnect=1;" parent="1" vertex="1">
          <mxGeometry x="747" y="607" width="10" height="10" as="geometry" />
        </mxCell>
        <mxCell id="QPylJCogJ4yJsTdaJuYl-27" value="" style="ellipse;whiteSpace=wrap;html=1;align=center;aspect=fixed;fillColor=none;strokeColor=none;resizable=0;perimeter=centerPerimeter;rotatable=0;allowArrows=0;points=[];outlineConnect=1;" parent="1" vertex="1">
          <mxGeometry x="274" y="409" width="10" height="10" as="geometry" />
        </mxCell>
        <mxCell id="JJwhxfO3wkZIyO4d7TkD-3" value="" style="endArrow=none;html=1;rounded=0;entryX=1;entryY=1;entryDx=0;entryDy=0;exitX=0;exitY=0.5;exitDx=0;exitDy=0;exitPerimeter=0;" parent="1" source="rrHo5r-WzOikPcS9EhRm-25" target="rrHo5r-WzOikPcS9EhRm-27" edge="1">
          <mxGeometry width="50" height="50" relative="1" as="geometry">
            <mxPoint x="1401" y="450" as="sourcePoint" />
            <mxPoint x="1011" y="442" as="targetPoint" />
          </mxGeometry>
        </mxCell>
        <mxCell id="JJwhxfO3wkZIyO4d7TkD-4" value="&lt;p style=&quot;margin:0px;margin-top:4px;text-align:center;&quot;&gt;&lt;b style=&quot;background-color: initial;&quot;&gt;&lt;br&gt;&lt;/b&gt;&lt;/p&gt;&lt;p style=&quot;margin:0px;margin-top:4px;text-align:center;&quot;&gt;&lt;b style=&quot;background-color: initial;&quot;&gt;Activity&lt;/b&gt;&lt;br&gt;&lt;/p&gt;" style="verticalAlign=top;align=left;overflow=fill;fontSize=12;fontFamily=Helvetica;html=1;whiteSpace=wrap;" parent="1" vertex="1">
          <mxGeometry x="1196.5" y="637" width="105" height="52" as="geometry" />
        </mxCell>
        <mxCell id="JJwhxfO3wkZIyO4d7TkD-5" value="" style="endArrow=none;html=1;rounded=0;entryX=1;entryY=0.5;entryDx=0;entryDy=0;exitX=0;exitY=0.5;exitDx=0;exitDy=0;exitPerimeter=0;" parent="1" source="rrHo5r-WzOikPcS9EhRm-25" target="JJwhxfO3wkZIyO4d7TkD-4" edge="1">
          <mxGeometry width="50" height="50" relative="1" as="geometry">
            <mxPoint x="1401" y="450" as="sourcePoint" />
            <mxPoint x="1331" y="622" as="targetPoint" />
          </mxGeometry>
        </mxCell>
        <mxCell id="rrHo5r-WzOikPcS9EhRm-33" value="&lt;p style=&quot;margin:0px;margin-top:6px;text-align:center;&quot;&gt;&lt;b&gt;ShowOverallSchedule.jsp&lt;/b&gt;&lt;/p&gt;" style="align=left;overflow=fill;html=1;dropTarget=0;whiteSpace=wrap;" parent="1" vertex="1">
          <mxGeometry x="424" y="548" width="194" height="30" as="geometry" />
        </mxCell>
        <mxCell id="rrHo5r-WzOikPcS9EhRm-34" value="" style="shape=component;jettyWidth=8;jettyHeight=4;" parent="rrHo5r-WzOikPcS9EhRm-33" vertex="1">
          <mxGeometry x="1" width="20" height="20" relative="1" as="geometry">
            <mxPoint x="-23" y="4" as="offset" />
          </mxGeometry>
        </mxCell>
        <mxCell id="JJwhxfO3wkZIyO4d7TkD-15" value="" style="endArrow=none;html=1;rounded=0;entryX=0.5;entryY=1;entryDx=0;entryDy=0;exitX=0.5;exitY=0;exitDx=0;exitDy=0;" parent="1" source="rrHo5r-WzOikPcS9EhRm-33" target="rrHo5r-WzOikPcS9EhRm-16" edge="1">
          <mxGeometry width="50" height="50" relative="1" as="geometry">
            <mxPoint x="522" y="470" as="sourcePoint" />
            <mxPoint x="530" y="482" as="targetPoint" />
          </mxGeometry>
        </mxCell>
        <mxCell id="JJwhxfO3wkZIyO4d7TkD-20" value="" style="ellipse;html=1;shape=startState;fillColor=#000000;strokeColor=#000000;" parent="1" vertex="1">
          <mxGeometry x="506" y="66" width="30" height="30" as="geometry" />
        </mxCell>
        <mxCell id="JJwhxfO3wkZIyO4d7TkD-21" value="" style="edgeStyle=orthogonalEdgeStyle;html=1;verticalAlign=bottom;endArrow=open;endSize=8;strokeColor=#000000;rounded=0;entryX=0.5;entryY=0;entryDx=0;entryDy=0;" parent="1" edge="1">
          <mxGeometry relative="1" as="geometry">
            <mxPoint x="520.9999999999998" y="142" as="targetPoint" />
            <mxPoint x="520.9999999999998" y="97" as="sourcePoint" />
          </mxGeometry>
        </mxCell>
        <mxCell id="JJwhxfO3wkZIyO4d7TkD-22" value="start" style="text;html=1;strokeColor=none;fillColor=none;align=center;verticalAlign=middle;whiteSpace=wrap;rounded=0;" parent="1" vertex="1">
          <mxGeometry x="491" y="37" width="60" height="30" as="geometry" />
        </mxCell>
        <mxCell id="JJwhxfO3wkZIyO4d7TkD-28" value="" style="endArrow=none;html=1;rounded=0;exitX=0;exitY=0.5;exitDx=0;exitDy=0;entryX=1;entryY=0.5;entryDx=0;entryDy=0;" parent="1" source="rrHo5r-WzOikPcS9EhRm-40" target="rrHo5r-WzOikPcS9EhRm-67" edge="1">
          <mxGeometry width="50" height="50" relative="1" as="geometry">
            <mxPoint x="983" y="538" as="sourcePoint" />
            <mxPoint x="640" y="321" as="targetPoint" />
            <Array as="points" />
          </mxGeometry>
        </mxCell>
        <mxCell id="JJwhxfO3wkZIyO4d7TkD-32" value="" style="endArrow=none;html=1;rounded=0;entryX=0;entryY=0.5;entryDx=0;entryDy=0;exitX=1;exitY=0.5;exitDx=0;exitDy=0;" parent="1" source="rrHo5r-WzOikPcS9EhRm-33" target="rrHo5r-WzOikPcS9EhRm-51" edge="1">
          <mxGeometry width="50" height="50" relative="1" as="geometry">
            <mxPoint x="625" y="654" as="sourcePoint" />
            <mxPoint x="965" y="654" as="targetPoint" />
            <Array as="points" />
          </mxGeometry>
        </mxCell>
        <mxCell id="rrHo5r-WzOikPcS9EhRm-51" value="&lt;p style=&quot;margin:0px;margin-top:6px;text-align:center;&quot;&gt;&lt;b&gt;FeedbackServlet&lt;/b&gt;&lt;/p&gt;" style="align=left;overflow=fill;html=1;dropTarget=0;whiteSpace=wrap;" parent="1" vertex="1">
          <mxGeometry x="800" y="509" width="180" height="28" as="geometry" />
        </mxCell>
        <mxCell id="rrHo5r-WzOikPcS9EhRm-52" value="" style="shape=component;jettyWidth=8;jettyHeight=4;" parent="rrHo5r-WzOikPcS9EhRm-51" vertex="1">
          <mxGeometry x="1" width="20" height="20" relative="1" as="geometry">
            <mxPoint x="-23" y="4" as="offset" />
          </mxGeometry>
        </mxCell>
        <mxCell id="JJwhxfO3wkZIyO4d7TkD-34" value="" style="endArrow=none;html=1;rounded=0;entryX=1;entryY=0.5;entryDx=0;entryDy=0;exitX=0;exitY=0.5;exitDx=0;exitDy=0;" parent="1" target="rrHo5r-WzOikPcS9EhRm-40" edge="1" source="rrHo5r-WzOikPcS9EhRm-27">
          <mxGeometry width="50" height="50" relative="1" as="geometry">
            <mxPoint x="1019" y="261" as="sourcePoint" />
            <mxPoint x="913" y="160" as="targetPoint" />
            <Array as="points" />
          </mxGeometry>
        </mxCell>
        <mxCell id="JJwhxfO3wkZIyO4d7TkD-36" value="" style="endArrow=none;html=1;rounded=0;entryX=0.5;entryY=1;entryDx=0;entryDy=0;exitX=0.5;exitY=0;exitDx=0;exitDy=0;" parent="1" edge="1" source="rrHo5r-WzOikPcS9EhRm-67">
          <mxGeometry width="50" height="50" relative="1" as="geometry">
            <mxPoint x="520" y="250" as="sourcePoint" />
            <mxPoint x="520" y="181" as="targetPoint" />
            <Array as="points" />
          </mxGeometry>
        </mxCell>
        <mxCell id="JJwhxfO3wkZIyO4d7TkD-37" value="" style="endArrow=none;html=1;rounded=0;exitX=0.5;exitY=0;exitDx=0;exitDy=0;entryX=0.5;entryY=1;entryDx=0;entryDy=0;" parent="1" source="rrHo5r-WzOikPcS9EhRm-12" target="rrHo5r-WzOikPcS9EhRm-67" edge="1">
          <mxGeometry width="50" height="50" relative="1" as="geometry">
            <mxPoint x="520.5" y="300" as="sourcePoint" />
            <mxPoint x="520.0974025974026" y="238" as="targetPoint" />
            <Array as="points" />
          </mxGeometry>
        </mxCell>
        <mxCell id="JJwhxfO3wkZIyO4d7TkD-41" value="&lt;p style=&quot;margin:0px;margin-top:6px;text-align:center;&quot;&gt;&lt;b&gt;EditProfile.jsp&lt;/b&gt;&lt;/p&gt;" style="align=left;overflow=fill;html=1;dropTarget=0;whiteSpace=wrap;" parent="1" vertex="1">
          <mxGeometry x="427.5" y="637" width="190" height="30" as="geometry" />
        </mxCell>
        <mxCell id="JJwhxfO3wkZIyO4d7TkD-42" value="" style="shape=component;jettyWidth=8;jettyHeight=4;" parent="JJwhxfO3wkZIyO4d7TkD-41" vertex="1">
          <mxGeometry x="1" width="20" height="20" relative="1" as="geometry">
            <mxPoint x="-24" y="4" as="offset" />
          </mxGeometry>
        </mxCell>
        <mxCell id="JJwhxfO3wkZIyO4d7TkD-43" value="&lt;p style=&quot;margin:0px;margin-top:6px;text-align:center;&quot;&gt;&lt;b&gt;EditProfileUserServlet&lt;/b&gt;&lt;/p&gt;" style="align=left;overflow=fill;html=1;dropTarget=0;whiteSpace=wrap;" parent="1" vertex="1">
          <mxGeometry x="810" y="637" width="190" height="30" as="geometry" />
        </mxCell>
        <mxCell id="JJwhxfO3wkZIyO4d7TkD-44" value="" style="shape=component;jettyWidth=8;jettyHeight=4;" parent="JJwhxfO3wkZIyO4d7TkD-43" vertex="1">
          <mxGeometry x="1" width="20" height="20" relative="1" as="geometry">
            <mxPoint x="-24" y="4" as="offset" />
          </mxGeometry>
        </mxCell>
        <mxCell id="JJwhxfO3wkZIyO4d7TkD-45" value="" style="endArrow=none;html=1;rounded=0;entryX=0;entryY=0.5;entryDx=0;entryDy=0;exitX=1;exitY=0.5;exitDx=0;exitDy=0;" parent="1" source="JJwhxfO3wkZIyO4d7TkD-41" target="JJwhxfO3wkZIyO4d7TkD-43" edge="1">
          <mxGeometry width="50" height="50" relative="1" as="geometry">
            <mxPoint x="634" y="731.47" as="sourcePoint" />
            <mxPoint x="704" y="731.47" as="targetPoint" />
            <Array as="points" />
          </mxGeometry>
        </mxCell>
        <mxCell id="JJwhxfO3wkZIyO4d7TkD-46" value="" style="endArrow=none;html=1;rounded=0;entryX=1;entryY=0.5;entryDx=0;entryDy=0;exitX=0;exitY=1;exitDx=0;exitDy=0;" parent="1" source="rrHo5r-WzOikPcS9EhRm-27" target="JJwhxfO3wkZIyO4d7TkD-43" edge="1">
          <mxGeometry width="50" height="50" relative="1" as="geometry">
            <mxPoint x="1008" y="317" as="sourcePoint" />
            <mxPoint x="910" y="317" as="targetPoint" />
            <Array as="points" />
          </mxGeometry>
        </mxCell>
        <mxCell id="CkrG8VeGBjx6NL60ix2R-6" value="" style="endArrow=none;html=1;rounded=0;exitX=1;exitY=0.5;exitDx=0;exitDy=0;entryX=0;entryY=0.5;entryDx=0;entryDy=0;entryPerimeter=0;" parent="1" source="rrHo5r-WzOikPcS9EhRm-21" target="rrHo5r-WzOikPcS9EhRm-25" edge="1">
          <mxGeometry width="50" height="50" relative="1" as="geometry">
            <mxPoint x="1131" y="530" as="sourcePoint" />
            <mxPoint x="1401" y="450" as="targetPoint" />
          </mxGeometry>
        </mxCell>
        <mxCell id="CkrG8VeGBjx6NL60ix2R-11" value="&lt;p style=&quot;margin:0px;margin-top:6px;text-align:center;&quot;&gt;&lt;b&gt;Signup_Controler&lt;/b&gt;&lt;/p&gt;" style="align=left;overflow=fill;html=1;dropTarget=0;whiteSpace=wrap;" parent="1" vertex="1">
          <mxGeometry x="790" y="220" width="190" height="30" as="geometry" />
        </mxCell>
        <mxCell id="CkrG8VeGBjx6NL60ix2R-12" value="" style="shape=component;jettyWidth=8;jettyHeight=4;" parent="CkrG8VeGBjx6NL60ix2R-11" vertex="1">
          <mxGeometry x="1" width="20" height="20" relative="1" as="geometry">
            <mxPoint x="-24" y="3" as="offset" />
          </mxGeometry>
        </mxCell>
        <mxCell id="CkrG8VeGBjx6NL60ix2R-13" value="" style="endArrow=none;html=1;rounded=0;exitX=1;exitY=0.5;exitDx=0;exitDy=0;entryX=0;entryY=0.5;entryDx=0;entryDy=0;" parent="1" source="rrHo5r-WzOikPcS9EhRm-67" target="CkrG8VeGBjx6NL60ix2R-11" edge="1">
          <mxGeometry width="50" height="50" relative="1" as="geometry">
            <mxPoint x="720" y="234" as="sourcePoint" />
            <mxPoint x="770" y="184" as="targetPoint" />
          </mxGeometry>
        </mxCell>
        <mxCell id="CkrG8VeGBjx6NL60ix2R-14" value="" style="endArrow=none;html=1;rounded=0;entryX=1;entryY=0.5;entryDx=0;entryDy=0;exitX=0;exitY=0.5;exitDx=0;exitDy=0;" parent="1" target="CkrG8VeGBjx6NL60ix2R-12" edge="1" source="rrHo5r-WzOikPcS9EhRm-27">
          <mxGeometry width="50" height="50" relative="1" as="geometry">
            <mxPoint x="1019" y="261" as="sourcePoint" />
            <mxPoint x="777" y="204" as="targetPoint" />
          </mxGeometry>
        </mxCell>
        <mxCell id="rw2ksO2WfS2tUrKaQk8l-1" value="" style="endArrow=none;html=1;rounded=0;entryX=0.5;entryY=1;entryDx=0;entryDy=0;exitX=0.5;exitY=0;exitDx=0;exitDy=0;" parent="1" source="JJwhxfO3wkZIyO4d7TkD-41" target="rrHo5r-WzOikPcS9EhRm-33" edge="1">
          <mxGeometry width="50" height="50" relative="1" as="geometry">
            <mxPoint x="850" y="587" as="sourcePoint" />
            <mxPoint x="900" y="537" as="targetPoint" />
          </mxGeometry>
        </mxCell>
        <mxCell id="rw2ksO2WfS2tUrKaQk8l-5" value="" style="endArrow=none;html=1;rounded=0;exitX=0.5;exitY=0;exitDx=0;exitDy=0;entryX=0.5;entryY=1;entryDx=0;entryDy=0;" parent="1" source="rrHo5r-WzOikPcS9EhRm-16" target="rrHo5r-WzOikPcS9EhRm-12" edge="1">
          <mxGeometry width="50" height="50" relative="1" as="geometry">
            <mxPoint x="520.5" y="397" as="sourcePoint" />
            <mxPoint x="600" y="360" as="targetPoint" />
          </mxGeometry>
        </mxCell>
        <mxCell id="15mbWHy1GeMFyQVu4cun-1" value="&lt;p style=&quot;margin: 4px 0px 0px;&quot;&gt;&lt;br&gt;&lt;/p&gt;&lt;p style=&quot;margin: 4px 0px 0px;&quot;&gt;&lt;b&gt;TravelerService&lt;/b&gt;&lt;/p&gt;&lt;p style=&quot;margin: 4px 0px 0px;&quot;&gt;&lt;b&gt;&lt;br&gt;&lt;/b&gt;&lt;/p&gt;" style="verticalAlign=top;align=center;overflow=fill;fontSize=12;fontFamily=Helvetica;html=1;whiteSpace=wrap;" parent="1" vertex="1">
          <mxGeometry x="1176" y="110" width="110" height="50" as="geometry" />
        </mxCell>
        <mxCell id="15mbWHy1GeMFyQVu4cun-2" value="" style="endArrow=none;html=1;rounded=0;entryX=1;entryY=0.5;entryDx=0;entryDy=0;exitX=0;exitY=0.5;exitDx=0;exitDy=0;exitPerimeter=0;" parent="1" source="rrHo5r-WzOikPcS9EhRm-25" target="15mbWHy1GeMFyQVu4cun-1" edge="1">
          <mxGeometry width="50" height="50" relative="1" as="geometry">
            <mxPoint x="1401" y="450" as="sourcePoint" />
            <mxPoint x="1271" y="340" as="targetPoint" />
          </mxGeometry>
        </mxCell>
        <mxCell id="15mbWHy1GeMFyQVu4cun-3" value="" style="endArrow=none;html=1;rounded=0;entryX=0.5;entryY=0;entryDx=0;entryDy=0;" parent="1" source="rrHo5r-WzOikPcS9EhRm-21" target="JJwhxfO3wkZIyO4d7TkD-4" edge="1">
          <mxGeometry width="50" height="50" relative="1" as="geometry">
            <mxPoint x="1021" y="652" as="sourcePoint" />
            <mxPoint x="1071" y="602" as="targetPoint" />
          </mxGeometry>
        </mxCell>
        <mxCell id="15mbWHy1GeMFyQVu4cun-5" value="" style="endArrow=none;html=1;rounded=0;entryX=0.5;entryY=1;entryDx=0;entryDy=0;" parent="1" source="rrHo5r-WzOikPcS9EhRm-27" target="15mbWHy1GeMFyQVu4cun-1" edge="1">
          <mxGeometry width="50" height="50" relative="1" as="geometry">
            <mxPoint x="1021" y="308" as="sourcePoint" />
            <mxPoint x="1071" y="258" as="targetPoint" />
          </mxGeometry>
        </mxCell>
        <mxCell id="15mbWHy1GeMFyQVu4cun-9" value="" style="endArrow=none;html=1;rounded=0;entryX=0;entryY=0.5;entryDx=0;entryDy=0;exitX=1;exitY=0.5;exitDx=0;exitDy=0;" parent="1" source="rrHo5r-WzOikPcS9EhRm-7" target="rrHo5r-WzOikPcS9EhRm-27" edge="1">
          <mxGeometry width="50" height="50" relative="1" as="geometry">
            <mxPoint x="900" y="390" as="sourcePoint" />
            <mxPoint x="790" y="340" as="targetPoint" />
          </mxGeometry>
        </mxCell>
        <mxCell id="MPBoBdzY9vaMmjmnaGBu-1" value="&lt;p style=&quot;margin:0px;margin-top:6px;text-align:center;&quot;&gt;&lt;b&gt;Authentication.jsp&lt;/b&gt;&lt;/p&gt;" style="align=left;overflow=fill;html=1;dropTarget=0;whiteSpace=wrap;" vertex="1" parent="1">
          <mxGeometry x="260" y="260" width="141" height="30" as="geometry" />
        </mxCell>
        <mxCell id="MPBoBdzY9vaMmjmnaGBu-2" value="" style="shape=component;jettyWidth=8;jettyHeight=4;" vertex="1" parent="MPBoBdzY9vaMmjmnaGBu-1">
          <mxGeometry x="1" width="20" height="20" relative="1" as="geometry">
            <mxPoint x="-24" y="4" as="offset" />
          </mxGeometry>
        </mxCell>
        <mxCell id="MPBoBdzY9vaMmjmnaGBu-3" value="&lt;p style=&quot;margin:0px;margin-top:6px;text-align:center;&quot;&gt;&lt;b&gt;logout.jsp&lt;/b&gt;&lt;/p&gt;" style="align=left;overflow=fill;html=1;dropTarget=0;whiteSpace=wrap;" vertex="1" parent="1">
          <mxGeometry x="551" y="200" width="141" height="30" as="geometry" />
        </mxCell>
        <mxCell id="MPBoBdzY9vaMmjmnaGBu-4" value="" style="shape=component;jettyWidth=8;jettyHeight=4;" vertex="1" parent="MPBoBdzY9vaMmjmnaGBu-3">
          <mxGeometry x="1" width="20" height="20" relative="1" as="geometry">
            <mxPoint x="-24" y="3" as="offset" />
          </mxGeometry>
        </mxCell>
        <mxCell id="MPBoBdzY9vaMmjmnaGBu-6" value="" style="endArrow=none;html=1;rounded=0;exitX=0.5;exitY=0;exitDx=0;exitDy=0;entryX=0.5;entryY=1;entryDx=0;entryDy=0;" edge="1" parent="1" source="MPBoBdzY9vaMmjmnaGBu-3" target="rrHo5r-WzOikPcS9EhRm-3">
          <mxGeometry width="50" height="50" relative="1" as="geometry">
            <mxPoint x="590" y="280" as="sourcePoint" />
            <mxPoint x="640" y="230" as="targetPoint" />
          </mxGeometry>
        </mxCell>
        <mxCell id="MPBoBdzY9vaMmjmnaGBu-7" value="" style="endArrow=none;html=1;rounded=0;exitX=0.5;exitY=1;exitDx=0;exitDy=0;entryX=0;entryY=0.5;entryDx=0;entryDy=0;" edge="1" parent="1" source="MPBoBdzY9vaMmjmnaGBu-1" target="rrHo5r-WzOikPcS9EhRm-67">
          <mxGeometry width="50" height="50" relative="1" as="geometry">
            <mxPoint x="590" y="280" as="sourcePoint" />
            <mxPoint x="640" y="230" as="targetPoint" />
          </mxGeometry>
        </mxCell>
        <mxCell id="MPBoBdzY9vaMmjmnaGBu-8" value="&lt;p style=&quot;margin:0px;margin-top:6px;text-align:center;&quot;&gt;&lt;b&gt;Aboutus.jsp&lt;/b&gt;&lt;/p&gt;" style="align=left;overflow=fill;html=1;dropTarget=0;whiteSpace=wrap;" vertex="1" parent="1">
          <mxGeometry x="330" y="200" width="130" height="30" as="geometry" />
        </mxCell>
        <mxCell id="MPBoBdzY9vaMmjmnaGBu-9" value="" style="shape=component;jettyWidth=8;jettyHeight=4;" vertex="1" parent="MPBoBdzY9vaMmjmnaGBu-8">
          <mxGeometry x="1" width="20" height="20" relative="1" as="geometry">
            <mxPoint x="-24" y="4" as="offset" />
          </mxGeometry>
        </mxCell>
        <mxCell id="MPBoBdzY9vaMmjmnaGBu-10" value="" style="endArrow=none;html=1;rounded=0;exitX=0.5;exitY=0;exitDx=0;exitDy=0;entryX=0.5;entryY=1;entryDx=0;entryDy=0;" edge="1" parent="1" source="MPBoBdzY9vaMmjmnaGBu-8" target="rrHo5r-WzOikPcS9EhRm-3">
          <mxGeometry width="50" height="50" relative="1" as="geometry">
            <mxPoint x="590" y="400" as="sourcePoint" />
            <mxPoint x="640" y="350" as="targetPoint" />
          </mxGeometry>
        </mxCell>
        <mxCell id="MPBoBdzY9vaMmjmnaGBu-11" value="" style="endArrow=none;html=1;rounded=0;exitX=0;exitY=0.5;exitDx=0;exitDy=0;entryX=1;entryY=0.5;entryDx=0;entryDy=0;" edge="1" parent="1" source="rrHo5r-WzOikPcS9EhRm-40" target="rrHo5r-WzOikPcS9EhRm-12">
          <mxGeometry width="50" height="50" relative="1" as="geometry">
            <mxPoint x="784" y="295" as="sourcePoint" />
            <mxPoint x="621" y="328" as="targetPoint" />
            <Array as="points" />
          </mxGeometry>
        </mxCell>
        <mxCell id="MPBoBdzY9vaMmjmnaGBu-12" value="" style="endArrow=none;html=1;rounded=0;exitX=0;exitY=0.25;exitDx=0;exitDy=0;" edge="1" parent="1" source="15mbWHy1GeMFyQVu4cun-1">
          <mxGeometry width="50" height="50" relative="1" as="geometry">
            <mxPoint x="1010" y="180" as="sourcePoint" />
            <mxPoint x="960" y="230" as="targetPoint" />
          </mxGeometry>
        </mxCell>
        <mxCell id="MPBoBdzY9vaMmjmnaGBu-13" value="" style="endArrow=none;html=1;rounded=0;entryX=1;entryY=0.5;entryDx=0;entryDy=0;exitX=0;exitY=1;exitDx=0;exitDy=0;" edge="1" parent="1" source="15mbWHy1GeMFyQVu4cun-1" target="rrHo5r-WzOikPcS9EhRm-40">
          <mxGeometry width="50" height="50" relative="1" as="geometry">
            <mxPoint x="860" y="140" as="sourcePoint" />
            <mxPoint x="689" y="148" as="targetPoint" />
          </mxGeometry>
        </mxCell>
        <mxCell id="MPBoBdzY9vaMmjmnaGBu-14" value="" style="endArrow=none;html=1;rounded=0;exitX=1;exitY=0.5;exitDx=0;exitDy=0;entryX=0;entryY=0.5;entryDx=0;entryDy=0;" edge="1" parent="1" source="MPBoBdzY9vaMmjmnaGBu-2" target="CkrG8VeGBjx6NL60ix2R-11">
          <mxGeometry width="50" height="50" relative="1" as="geometry">
            <mxPoint x="640" y="260" as="sourcePoint" />
            <mxPoint x="803" y="177" as="targetPoint" />
          </mxGeometry>
        </mxCell>
        <mxCell id="MPBoBdzY9vaMmjmnaGBu-15" value="" style="endArrow=none;html=1;rounded=0;exitX=1;exitY=0.75;exitDx=0;exitDy=0;entryX=0;entryY=0.5;entryDx=0;entryDy=0;" edge="1" parent="1" source="MPBoBdzY9vaMmjmnaGBu-1" target="rrHo5r-WzOikPcS9EhRm-40">
          <mxGeometry width="50" height="50" relative="1" as="geometry">
            <mxPoint x="760" y="160" as="sourcePoint" />
            <mxPoint x="923" y="77" as="targetPoint" />
          </mxGeometry>
        </mxCell>
        <mxCell id="MPBoBdzY9vaMmjmnaGBu-16" value="" style="endArrow=none;html=1;rounded=0;exitX=1;exitY=0.5;exitDx=0;exitDy=0;entryX=0;entryY=0.75;entryDx=0;entryDy=0;" edge="1" parent="1" source="rrHo5r-WzOikPcS9EhRm-12" target="CkrG8VeGBjx6NL60ix2R-11">
          <mxGeometry width="50" height="50" relative="1" as="geometry">
            <mxPoint x="790" y="160" as="sourcePoint" />
            <mxPoint x="953" y="77" as="targetPoint" />
          </mxGeometry>
        </mxCell>
        <mxCell id="MPBoBdzY9vaMmjmnaGBu-18" value="" style="endArrow=none;html=1;rounded=0;exitX=0;exitY=0.5;exitDx=0;exitDy=0;entryX=0.5;entryY=1;entryDx=0;entryDy=0;" edge="1" parent="1" source="rrHo5r-WzOikPcS9EhRm-12" target="MPBoBdzY9vaMmjmnaGBu-1">
          <mxGeometry width="50" height="50" relative="1" as="geometry">
            <mxPoint x="660" y="390" as="sourcePoint" />
            <mxPoint x="710" y="340" as="targetPoint" />
          </mxGeometry>
        </mxCell>
        <mxCell id="MPBoBdzY9vaMmjmnaGBu-19" value="&lt;p style=&quot;margin: 4px 0px 0px;&quot;&gt;&lt;b&gt;&lt;br&gt;&lt;/b&gt;&lt;/p&gt;&lt;p style=&quot;margin: 4px 0px 0px;&quot;&gt;&lt;b&gt;CatalogService&lt;/b&gt;&lt;/p&gt;" style="verticalAlign=top;align=center;overflow=fill;fontSize=12;fontFamily=Helvetica;html=1;whiteSpace=wrap;" vertex="1" parent="1">
          <mxGeometry x="1181" y="292" width="105" height="52" as="geometry" />
        </mxCell>
        <mxCell id="MPBoBdzY9vaMmjmnaGBu-20" value="" style="endArrow=none;html=1;rounded=0;entryX=1;entryY=0.5;entryDx=0;entryDy=0;exitX=0;exitY=0.5;exitDx=0;exitDy=0;exitPerimeter=0;" edge="1" parent="1" source="rrHo5r-WzOikPcS9EhRm-25" target="MPBoBdzY9vaMmjmnaGBu-19">
          <mxGeometry width="50" height="50" relative="1" as="geometry">
            <mxPoint x="1405" y="460" as="sourcePoint" />
            <mxPoint x="1287" y="595" as="targetPoint" />
          </mxGeometry>
        </mxCell>
        <mxCell id="MPBoBdzY9vaMmjmnaGBu-21" value="&lt;p style=&quot;margin:0px;margin-top:4px;text-align:center;&quot;&gt;&lt;br&gt;&lt;b&gt;ScheduleDAO&lt;/b&gt;&lt;/p&gt;" style="verticalAlign=top;align=left;overflow=fill;fontSize=12;fontFamily=Helvetica;html=1;whiteSpace=wrap;" vertex="1" parent="1">
          <mxGeometry x="1192" y="459" width="110" height="50" as="geometry" />
        </mxCell>
        <mxCell id="MPBoBdzY9vaMmjmnaGBu-25" value="" style="endArrow=none;html=1;rounded=0;entryX=0;entryY=0.5;entryDx=0;entryDy=0;exitX=1;exitY=0.607;exitDx=0;exitDy=0;exitPerimeter=0;" edge="1" parent="1" source="rrHo5r-WzOikPcS9EhRm-7" target="MPBoBdzY9vaMmjmnaGBu-21">
          <mxGeometry width="50" height="50" relative="1" as="geometry">
            <mxPoint x="810" y="450" as="sourcePoint" />
            <mxPoint x="860" y="400" as="targetPoint" />
          </mxGeometry>
        </mxCell>
        <mxCell id="MPBoBdzY9vaMmjmnaGBu-26" value="" style="endArrow=none;html=1;rounded=0;entryX=0;entryY=0;entryDx=0;entryDy=0;exitX=1;exitY=0.75;exitDx=0;exitDy=0;" edge="1" parent="1" source="rrHo5r-WzOikPcS9EhRm-7" target="JJwhxfO3wkZIyO4d7TkD-4">
          <mxGeometry width="50" height="50" relative="1" as="geometry">
            <mxPoint x="910" y="430" as="sourcePoint" />
            <mxPoint x="1100" y="489" as="targetPoint" />
          </mxGeometry>
        </mxCell>
        <mxCell id="MPBoBdzY9vaMmjmnaGBu-27" value="" style="endArrow=none;html=1;rounded=0;exitX=1;exitY=0.5;exitDx=0;exitDy=0;entryX=0;entryY=0.5;entryDx=0;entryDy=0;" edge="1" parent="1" source="rrHo5r-WzOikPcS9EhRm-16" target="rrHo5r-WzOikPcS9EhRm-7">
          <mxGeometry width="50" height="50" relative="1" as="geometry">
            <mxPoint x="890" y="546" as="sourcePoint" />
            <mxPoint x="940" y="496" as="targetPoint" />
          </mxGeometry>
        </mxCell>
        <mxCell id="MPBoBdzY9vaMmjmnaGBu-28" value="&lt;p style=&quot;margin: 4px 0px 0px;&quot;&gt;&lt;b&gt;&lt;br&gt;&lt;/b&gt;&lt;/p&gt;&lt;p style=&quot;margin: 4px 0px 0px;&quot;&gt;&lt;b&gt;Destination&lt;/b&gt;&lt;/p&gt;" style="verticalAlign=top;align=center;overflow=fill;fontSize=12;fontFamily=Helvetica;html=1;whiteSpace=wrap;" vertex="1" parent="1">
          <mxGeometry x="1135" y="393.5" width="80" height="41" as="geometry" />
        </mxCell>
        <mxCell id="MPBoBdzY9vaMmjmnaGBu-30" value="&lt;p style=&quot;margin: 4px 0px 0px;&quot;&gt;&lt;b&gt;&lt;br&gt;&lt;/b&gt;&lt;/p&gt;&lt;p style=&quot;margin: 4px 0px 0px;&quot;&gt;&lt;b&gt;Type&lt;/b&gt;&lt;/p&gt;" style="verticalAlign=top;align=center;overflow=fill;fontSize=12;fontFamily=Helvetica;html=1;whiteSpace=wrap;" vertex="1" parent="1">
          <mxGeometry x="1235" y="393.5" width="90" height="41" as="geometry" />
        </mxCell>
        <mxCell id="MPBoBdzY9vaMmjmnaGBu-31" value="&lt;p style=&quot;margin: 4px 0px 0px;&quot;&gt;&lt;b&gt;&amp;nbsp;&lt;/b&gt;&lt;/p&gt;&lt;p style=&quot;margin: 4px 0px 0px;&quot;&gt;&lt;b&gt;Budget&lt;/b&gt;&lt;/p&gt;" style="verticalAlign=top;align=center;overflow=fill;fontSize=12;fontFamily=Helvetica;html=1;whiteSpace=wrap;" vertex="1" parent="1">
          <mxGeometry x="1345" y="393.5" width="90" height="41" as="geometry" />
        </mxCell>
        <mxCell id="MPBoBdzY9vaMmjmnaGBu-32" value="" style="endArrow=none;html=1;rounded=0;entryX=0.5;entryY=1;entryDx=0;entryDy=0;exitX=0.5;exitY=0;exitDx=0;exitDy=0;" edge="1" parent="1" source="MPBoBdzY9vaMmjmnaGBu-28" target="MPBoBdzY9vaMmjmnaGBu-19">
          <mxGeometry width="50" height="50" relative="1" as="geometry">
            <mxPoint x="935" y="540" as="sourcePoint" />
            <mxPoint x="985" y="490" as="targetPoint" />
          </mxGeometry>
        </mxCell>
        <mxCell id="MPBoBdzY9vaMmjmnaGBu-33" value="" style="endArrow=none;html=1;rounded=0;entryX=0.5;entryY=1;entryDx=0;entryDy=0;exitX=0.5;exitY=0;exitDx=0;exitDy=0;" edge="1" parent="1" source="MPBoBdzY9vaMmjmnaGBu-30" target="MPBoBdzY9vaMmjmnaGBu-19">
          <mxGeometry width="50" height="50" relative="1" as="geometry">
            <mxPoint x="935" y="540" as="sourcePoint" />
            <mxPoint x="985" y="490" as="targetPoint" />
          </mxGeometry>
        </mxCell>
        <mxCell id="MPBoBdzY9vaMmjmnaGBu-34" value="" style="endArrow=none;html=1;rounded=0;entryX=0.5;entryY=1;entryDx=0;entryDy=0;exitX=0.5;exitY=0;exitDx=0;exitDy=0;" edge="1" parent="1" source="MPBoBdzY9vaMmjmnaGBu-31" target="MPBoBdzY9vaMmjmnaGBu-19">
          <mxGeometry width="50" height="50" relative="1" as="geometry">
            <mxPoint x="935" y="540" as="sourcePoint" />
            <mxPoint x="985" y="490" as="targetPoint" />
          </mxGeometry>
        </mxCell>
        <mxCell id="MPBoBdzY9vaMmjmnaGBu-35" value="" style="endArrow=none;html=1;rounded=0;entryX=0;entryY=0.5;entryDx=0;entryDy=0;exitX=1;exitY=0.75;exitDx=0;exitDy=0;" edge="1" parent="1" source="rrHo5r-WzOikPcS9EhRm-12" target="MPBoBdzY9vaMmjmnaGBu-19">
          <mxGeometry width="50" height="50" relative="1" as="geometry">
            <mxPoint x="890" y="540" as="sourcePoint" />
            <mxPoint x="940" y="490" as="targetPoint" />
          </mxGeometry>
        </mxCell>
        <mxCell id="MPBoBdzY9vaMmjmnaGBu-36" value="" style="endArrow=none;html=1;rounded=0;entryX=0;entryY=0.5;entryDx=0;entryDy=0;exitX=1;exitY=0.5;exitDx=0;exitDy=0;" edge="1" parent="1" source="rrHo5r-WzOikPcS9EhRm-16" target="MPBoBdzY9vaMmjmnaGBu-19">
          <mxGeometry width="50" height="50" relative="1" as="geometry">
            <mxPoint x="860" y="400" as="sourcePoint" />
            <mxPoint x="1385" y="326" as="targetPoint" />
          </mxGeometry>
        </mxCell>
        <mxCell id="MPBoBdzY9vaMmjmnaGBu-37" value="" style="endArrow=none;html=1;rounded=0;exitX=1;exitY=0.5;exitDx=0;exitDy=0;" edge="1" parent="1" source="MPBoBdzY9vaMmjmnaGBu-21">
          <mxGeometry width="50" height="50" relative="1" as="geometry">
            <mxPoint x="1495" y="590" as="sourcePoint" />
            <mxPoint x="1545" y="420" as="targetPoint" />
          </mxGeometry>
        </mxCell>
        <mxCell id="MPBoBdzY9vaMmjmnaGBu-38" value="" style="endArrow=none;html=1;rounded=0;entryX=0.5;entryY=1;entryDx=0;entryDy=0;exitX=0.5;exitY=0;exitDx=0;exitDy=0;" edge="1" parent="1" source="rrHo5r-WzOikPcS9EhRm-21" target="MPBoBdzY9vaMmjmnaGBu-21">
          <mxGeometry width="50" height="50" relative="1" as="geometry">
            <mxPoint x="935" y="530" as="sourcePoint" />
            <mxPoint x="985" y="480" as="targetPoint" />
          </mxGeometry>
        </mxCell>
        <mxCell id="MPBoBdzY9vaMmjmnaGBu-41" value="" style="endArrow=none;html=1;rounded=0;entryX=0;entryY=0.5;entryDx=0;entryDy=0;exitX=1;exitY=0.5;exitDx=0;exitDy=0;" edge="1" parent="1" source="rrHo5r-WzOikPcS9EhRm-52" target="rrHo5r-WzOikPcS9EhRm-21">
          <mxGeometry width="50" height="50" relative="1" as="geometry">
            <mxPoint x="840" y="560" as="sourcePoint" />
            <mxPoint x="890" y="510" as="targetPoint" />
          </mxGeometry>
        </mxCell>
        <mxCell id="MPBoBdzY9vaMmjmnaGBu-42" value="" style="endArrow=none;html=1;rounded=0;entryX=0;entryY=1;entryDx=0;entryDy=0;exitX=1;exitY=0.5;exitDx=0;exitDy=0;" edge="1" parent="1" source="JJwhxfO3wkZIyO4d7TkD-42" target="MPBoBdzY9vaMmjmnaGBu-21">
          <mxGeometry width="50" height="50" relative="1" as="geometry">
            <mxPoint x="920" y="590" as="sourcePoint" />
            <mxPoint x="970" y="540" as="targetPoint" />
          </mxGeometry>
        </mxCell>
        <mxCell id="MPBoBdzY9vaMmjmnaGBu-48" style="edgeStyle=orthogonalEdgeStyle;rounded=0;orthogonalLoop=1;jettySize=auto;html=1;exitX=0.5;exitY=1;exitDx=0;exitDy=0;" edge="1" parent="1" source="rrHo5r-WzOikPcS9EhRm-51" target="rrHo5r-WzOikPcS9EhRm-51">
          <mxGeometry relative="1" as="geometry" />
        </mxCell>
        <mxCell id="MPBoBdzY9vaMmjmnaGBu-54" value="" style="endArrow=none;html=1;rounded=0;exitX=1;exitY=0.5;exitDx=0;exitDy=0;entryX=0;entryY=0.5;entryDx=0;entryDy=0;" edge="1" parent="1" source="rrHo5r-WzOikPcS9EhRm-33" target="rrHo5r-WzOikPcS9EhRm-21">
          <mxGeometry width="50" height="50" relative="1" as="geometry">
            <mxPoint x="920" y="450" as="sourcePoint" />
            <mxPoint x="970" y="400" as="targetPoint" />
          </mxGeometry>
        </mxCell>
      </root>
    </mxGraphModel>
  </diagram>
</mxfile>
